<!DOCTYPE svg PUBLIC "-//W3C//DTD SVG 20010904//EN" "http://www.w3.org/TR/2001/REC-SVG-20010904/DTD/svg10.dtd">
<svg version="1.0" xmlns="http://www.w3.org/2000/svg" width="400px" height="247px" viewBox="0 0 400 247" preserveAspectRatio="xMidYMid meet">
 <g id="layer101" fill="#22b14d" stroke="none">
  <path d="M352 232.3 c0 -1.6 0.9 -2.2 3.9 -2.7 6.6 -1 8.1 -4 8.1 -15.8 0 -14.3 2.1 -17.9 11.8 -20.9 2.3 -0.7 4.2 -1.5 4.2 -1.9 0 -0.4 -1.7 -1.2 -3.9 -1.8 -9.4 -2.9 -12.1 -7.8 -12.1 -22 0 -11.8 -1.5 -14.8 -8.1 -15.8 -3 -0.5 -3.9 -1.1 -3.9 -2.7 0 -1.8 0.4 -1.9 5.6 -1.3 6.8 0.8 10.5 2.8 13 7 1.5 2.5 1.8 5.3 1.9 15.2 0 14.2 0.7 15.5 8.6 17.4 4.4 1.1 4.9 1.5 4.9 4 0 2.5 -0.4 2.9 -4.1 3.5 -2.2 0.4 -5.2 1.7 -6.7 3 -2.6 2.3 -2.7 2.6 -2.7 14.2 -0.1 16.9 -2.7 20.7 -15.1 22 -4.9 0.5 -5.4 0.4 -5.4 -1.4z"/>
  <path d="M202 137.5 c0 -0.6 0.6 -1.7 1.3 -2.4 1 -1.1 1 -1.4 0 -1.8 -1.7 -0.6 -1.6 -2.3 0.1 -2.3 2.3 0 2.6 2.8 0.6 5.2 -1.1 1.3 -1.9 1.8 -2 1.3z"/>
  <path d="M203 122 c0 -0.5 0.5 -1 1 -1 0.6 0 1 0.5 1 1 0 0.6 -0.4 1 -1 1 -0.5 0 -1 -0.4 -1 -1z"/>
  <path d="M28.7 101.6 c-8.1 -2.9 -10.3 -7.6 -9.4 -20.3 0.9 -12.6 -1.3 -16.5 -10.2 -17.9 -3.7 -0.6 -4.1 -1 -4.1 -3.4 0 -2.4 0.5 -2.9 3.6 -3.5 9.7 -1.8 10.8 -3.7 10.8 -19 0.1 -9.8 0.4 -12.6 1.9 -14.8 2.3 -3.6 6.4 -5.5 13.1 -6.3 5.2 -0.6 5.6 -0.5 5.6 1.3 0 1.6 -0.9 2.2 -4 2.7 -6.8 1.1 -8 3.2 -8 13.7 0 15.8 -2.7 21.2 -12 24 -2.2 0.7 -4 1.5 -4 1.8 0 0.4 2.2 1.4 4.8 2.3 9 3.2 11.1 7.7 11.2 23.1 0 10.1 1.3 12.2 8 13.3 3 0.5 4 1.1 4 2.5 0 1.5 -0.7 1.9 -3.7 1.9 -2.1 -0.1 -5.5 -0.7 -7.6 -1.4z"/>
</g>

</svg>