<!DOCTYPE svg PUBLIC "-//W3C//DTD SVG 20010904//EN" "http://www.w3.org/TR/2001/REC-SVG-20010904/DTD/svg10.dtd">
<svg version="1.0" xmlns="http://www.w3.org/2000/svg" width="400px" height="247px" viewBox="0 0 4000 2470" preserveAspectRatio="xMidYMid meet">
<g id="layer101" fill="#22b14c" stroke="none">
 <path d="M600 1799 c-72 -12 -138 -54 -164 -104 -19 -35 -21 -57 -21 -185 0 -96 -4 -152 -12 -166 -16 -27 -65 -50 -126 -59 l-47 -7 0 -43 0 -43 48 -7 c123 -18 148 -56 137 -212 -15 -226 46 -295 273 -310 l92 -6 0 25 c0 22 -6 26 -40 32 -101 16 -118 44 -123 211 -4 137 -18 178 -75 225 -19 16 -61 37 -94 46 -47 15 -58 22 -58 39 0 18 10 25 58 38 67 19 128 66 150 116 10 23 17 82 20 166 5 130 5 130 37 162 22 22 45 33 78 38 41 6 47 10 47 31 0 23 -3 24 -62 23 -35 -1 -88 -5 -118 -10z"/>
 <path d="M3250 1787 c0 -22 6 -26 38 -32 61 -10 99 -39 111 -82 6 -21 11 -85 11 -143 1 -161 36 -218 163 -256 46 -15 57 -22 57 -39 0 -17 -11 -24 -57 -39 -127 -38 -162 -95 -163 -256 0 -58 -5 -122 -11 -143 -12 -43 -50 -72 -111 -82 -32 -6 -38 -10 -38 -32 l0 -26 89 6 c106 8 191 37 225 77 40 48 49 92 43 213 -8 171 12 209 121 229 l62 12 0 41 0 41 -62 12 c-47 9 -70 19 -93 42 l-30 30 3 140 c3 148 -6 190 -50 237 -33 35 -120 63 -219 70 l-89 6 0 -26z"/>
 <path d="M1760 1794 c0 -11 403 -1139 410 -1147 4 -5 30 -7 58 -5 l50 3 -62 175 c-35 96 -127 356 -206 578 l-143 402 -53 0 c-30 0 -54 -3 -54 -6z"/>
 <path d="M1258 1414 l-308 -154 0 -45 0 -45 310 -155 310 -155 0 58 0 58 -247 119 -246 120 246 119 247 120 0 58 c0 32 -1 58 -2 57 -2 0 -141 -70 -310 -155z"/>
 <path d="M2450 1512 l0 -59 246 -119 247 -119 -247 -119 -246 -120 0 -58 0 -58 310 155 310 155 0 45 0 45 -310 155 -310 155 0 -58z"/>
 </g>

</svg>